<?xml version="1.0" encoding="UTF-8"?>
<svg width="256px" height="256px" viewBox="0 0 256 256" version="1.1" xmlns="http://www.w3.org/2000/svg">
    <g>
        <path d="M128,0 C57.307,0 0,57.307 0,128 C0,198.693 57.307,256 128,256 C198.693,256 256,198.693 256,128 C256,57.307 198.693,0 128,0" fill="#000000"></path>
        <path d="M128,32 L35.9,88 L35.9,168 L128,224 L220.1,168 L220.1,88 L128,32 Z" fill="#FFFFFF"></path>
        <path d="M128,52 L52,98.6 L52,157.4 L128,204 L204,157.4 L204,98.6 L128,52 Z" fill="#000000"></path>
        <path d="M128,72 L68,108.7 L68,146.3 L128,184 L188,146.3 L188,108.7 L128,72 Z" fill="#FFFFFF"></path>
    </g>
</svg> 