<?xml version="1.0" encoding="UTF-8"?>
<svg width="256px" height="256px" viewBox="0 0 256 256" version="1.1" xmlns="http://www.w3.org/2000/svg">
    <g>
        <path d="M210.483381,73.8236374 C207.827698,72.9095503 205.075867,72.0446761 202.24247,71.2267368 C202.708172,69.3261098 203.135596,67.4500894 203.515631,65.6059664 C209.753843,35.3248922 205.675082,10.9302478 191.747328,2.89849283 C178.392359,-4.80289661 156.551327,3.22703567 134.492936,22.4237776 C132.371761,24.2697233 130.244662,26.2241201 128.118477,28.2723861 C126.701777,26.917204 125.287358,25.6075897 123.876584,24.3549348 C100.758745,3.82852863 77.5866802,-4.82157937 63.6725966,3.23341515 C50.3303869,10.9571328 46.3792156,33.8904224 51.9945178,62.5880206 C52.5367729,65.3599011 53.1706189,68.1905639 53.8873982,71.068617 C50.6078941,71.9995641 47.4418534,72.9920277 44.4125156,74.0478303 C17.3093297,83.497195 0,98.3066828 0,113.667995 C0,129.533287 18.5815786,145.446423 46.8116526,155.095373 C49.0394553,155.856809 51.3511025,156.576778 53.7333796,157.260293 C52.9600965,160.37302 52.2875179,163.423318 51.7229345,166.398431 C46.3687351,194.597975 50.5500231,216.989464 63.8566899,224.664425 C77.6012619,232.590464 100.66852,224.443422 123.130185,204.809231 C124.905501,203.257196 126.687196,201.611293 128.472081,199.886102 C130.785552,202.113904 133.095375,204.222319 135.392897,206.199955 C157.14963,224.922338 178.637969,232.482469 191.932332,224.786092 C205.663234,216.837268 210.125675,192.78347 204.332202,163.5181 C203.88974,161.283006 203.374826,158.99961 202.796573,156.675661 C204.416503,156.196743 206.006814,155.702335 207.557482,155.188332 C236.905331,145.46465 256,129.745175 256,113.667995 C256,98.2510906 238.132466,83.3418093 210.483381,73.8236374 L210.483381,73.8236374 Z" fill="#00D8FF"></path>
        <path d="M201.345213,142.241309 C199.916538,142.70837 198.437196,143.159619 196.919633,143.592711 C194.722589,134.282961 191.293846,124.444841 186.816557,114.440811 C191.060953,104.700139 194.320675,95.0343812 196.459269,85.8973263 C199.176316,86.6937119 201.805316,87.5517576 204.32695,88.4673023 C228.975696,96.8230163 244.081366,109.283577 244.081366,113.667995 C244.081366,118.34727 227.707572,131.621438 201.345213,142.241309 L201.345213,142.241309 Z" fill="#00D8FF"></path>
        <path d="M163.614731,169.055691 C160.415072,163.840547 157.135937,158.379 153.823911,152.717197 C158.730228,153.049137 163.492514,153.222983 168.071797,153.222983 C172.785271,153.222983 177.601285,153.026322 182.44249,152.641311 C179.258996,158.355974 175.983735,163.833792 172.724594,169.033225 C169.521412,174.122289 166.217466,179.017137 162.873533,183.68793 C159.493087,179.012176 156.164669,174.102442 163.614731,169.055691 L163.614731,169.055691 Z" fill="#00D8FF"></path>
        <path d="M128.000001,193.58325 C122.036009,187.066325 116.081514,179.519441 110.329012,171.162675 C116.018043,171.364325 121.835254,171.468705 127.737745,171.468705 C133.718724,171.468705 139.616843,171.360878 145.384586,171.148919 C139.735,179.406477 133.864965,186.954275 127.999999,193.58325 L128.000001,193.58325 Z" fill="#00D8FF"></path>
        <path d="M82.2118954,142.236837 C55.8983804,131.62433 39.5492639,118.353625 39.5492639,113.667995 C39.5492639,109.28438 54.6551737,96.8267746 79.2913561,88.4716809 C81.8828438,87.5445817 84.5743215,86.6799556 87.326442,85.8735955 C89.4725685,95.124559 92.7585414,104.89419 97.0668349,114.754814 C92.7022586,124.7459 89.3535911,134.62985 87.1767159,144.034595 C85.5603365,143.563599 83.9801487,143.073789 82.2118954,142.236837 L82.2118954,142.236837 Z" fill="#00D8FF"></path>
        <path d="M92.8901576,169.044557 C89.6307892,163.783225 86.4829789,158.297138 83.4766389,152.625789 C88.2699997,152.998229 93.1995448,153.222983 98.2698275,153.222983 C102.986959,153.222983 107.796484,153.032541 112.663673,152.66207 C109.597279,158.306842 106.422819,163.795808 103.161144,169.019615 C99.8635466,174.194972 96.4810293,179.09815 93.0746538,183.731158 C89.6678773,179.047819 86.324656,174.096657 92.8901576,169.044557 L92.8901576,169.044557 Z" fill="#00D8FF"></path>
        <path d="M127.737745,55.8671906 C133.784732,62.4109118 139.820839,69.9403945 145.63037,78.2632333 C139.824026,78.0531165 133.921839,77.9493989 128.000001,77.9493989 C122.000587,77.9493989 116.018045,78.0596401 110.152323,78.2835669 C115.849582,70.0611619 121.875393,62.5307961 127.737745,55.8671906 L127.737745,55.8671906 Z" fill="#00D8FF"></path>
        <path d="M64.0522461,146.254569 C62.5345125,141.003244 61.3868785,135.628264 60.6291771,130.199275 C65.0162153,131.353275 69.7004944,132.380167 74.6324811,133.26768 C72.2273211,137.975538 69.9267714,142.741871 67.7510559,147.524531 C66.4767414,147.124544 65.2397277,146.707695 64.0522461,146.254569 L64.0522461,146.254569 Z" fill="#00D8FF"></path>
        <path d="M74.9297863,94.1927838 C69.9086711,95.0855067 65.1535864,96.1336216 60.7203169,97.2976254 C61.4642473,91.7572373 62.6321534,86.2909827 64.1804837,80.9463472 C65.4038563,80.4611343 66.6527198,80.0322686 67.9232326,79.6219604 C70.1272984,84.4558836 72.4780915,89.2718725 74.9297863,94.1927838 L74.9297863,94.1927838 Z" fill="#00D8FF"></path>
        <path d="M128.000001,26.3493788 C134.575523,32.8529105 141.148362,40.9541326 147.463673,50.4073794 C141.19465,50.1572715 134.805148,50.027649 128.349689,50.027649 C121.908851,50.027649 115.484745,50.1500015 109.127402,50.3870574 C115.496238,41.1234647 122.112328,33.0674116 128.000001,26.3493788 L128.000001,26.3493788 Z" fill="#00D8FF"></path>
        <path d="M180.666209,94.2927899 C183.232576,89.1787736 185.623299,84.1762092 187.825723,79.3361577 C189.038195,79.7275378 190.236404,80.1283447 191.420237,80.5406923 C193.020666,85.9825682 194.21035,91.5508553 194.965952,97.1800285 C190.443958,95.9839633 185.592987,94.9056451 180.666209,94.2927899 L180.666209,94.2927899 Z" fill="#00D8FF"></path>
        <path d="M187.133472,147.739507 C185.007653,142.940971 182.712009,138.124619 180.236528,133.324867 C185.248525,132.458451 190.046561,131.418596 194.577584,130.220644 C193.794335,135.841158 192.586834,141.399271 190.976623,146.790524 C189.828116,147.235033 188.631604,147.646947 187.133472,147.739507 L187.133472,147.739507 Z" fill="#00D8FF"></path>
    </g>
</svg> 