<?xml version="1.0" encoding="UTF-8"?>
<svg width="256px" height="256px" viewBox="0 0 256 256" version="1.1" xmlns="http://www.w3.org/2000/svg">
    <g>
        <path d="M128,0 C93.867,0 72.533,17.067 64,51.2 C76.8,34.133 91.733,27.733 108.8,32 C117.689,34.288 124.127,40.837 131.234,48.069 C142.832,59.888 156.373,73.689 192,73.689 C226.133,73.689 247.467,56.622 256,22.489 C243.2,39.556 228.267,45.956 211.2,41.689 C202.311,39.401 195.873,32.852 188.766,25.62 C177.168,13.801 163.627,0 128,0 Z M64,73.689 C29.867,73.689 8.533,90.756 0,124.889 C12.8,107.822 27.733,101.422 44.8,105.689 C53.689,107.977 60.127,114.526 67.234,121.758 C78.832,133.577 92.373,147.378 128,147.378 C162.133,147.378 183.467,130.311 192,96.178 C179.2,113.245 164.267,119.645 147.2,115.378 C138.311,113.09 131.873,106.541 124.766,99.309 C113.168,87.49 99.627,73.689 64,73.689 Z" fill="#38BDF8"></path>
    </g>
</svg> 